<mxfile host="Electron" agent="Mozilla/5.0 (Macintosh; Intel Mac OS X 10_15_7) AppleWebKit/537.36 (KHTML, like Gecko) draw.io/24.7.8 Chrome/128.0.6613.36 Electron/32.0.1 Safari/537.36" version="24.7.8">
  <diagram name="Page-1" id="hojKnJonuWL-NHObBmFm">
    <mxGraphModel dx="1242" dy="816" grid="1" gridSize="10" guides="1" tooltips="1" connect="1" arrows="1" fold="1" page="1" pageScale="1" pageWidth="850" pageHeight="1100" math="0" shadow="0">
      <root>
        <mxCell id="0" />
        <mxCell id="1" parent="0" />
        <mxCell id="NUweWYWdrOuJytt6Tr1V-1" value="Client" style="sketch=0;outlineConnect=0;fontColor=#232F3E;gradientColor=none;fillColor=#232F3D;strokeColor=none;dashed=0;verticalLabelPosition=bottom;verticalAlign=top;align=center;html=1;fontSize=12;fontStyle=0;aspect=fixed;pointerEvents=1;shape=mxgraph.aws4.client;" vertex="1" parent="1">
          <mxGeometry x="30.5" y="250" width="78" height="76" as="geometry" />
        </mxCell>
        <mxCell id="NUweWYWdrOuJytt6Tr1V-2" value="Client" style="sketch=0;outlineConnect=0;fontColor=#232F3E;gradientColor=none;fillColor=#232F3D;strokeColor=none;dashed=0;verticalLabelPosition=bottom;verticalAlign=top;align=center;html=1;fontSize=12;fontStyle=0;aspect=fixed;pointerEvents=1;shape=mxgraph.aws4.mobile_client;" vertex="1" parent="1">
          <mxGeometry x="49" y="398" width="41" height="78" as="geometry" />
        </mxCell>
        <mxCell id="NUweWYWdrOuJytt6Tr1V-5" style="edgeStyle=orthogonalEdgeStyle;rounded=0;orthogonalLoop=1;jettySize=auto;html=1;" edge="1" parent="1" source="NUweWYWdrOuJytt6Tr1V-3" target="NUweWYWdrOuJytt6Tr1V-4">
          <mxGeometry relative="1" as="geometry" />
        </mxCell>
        <mxCell id="NUweWYWdrOuJytt6Tr1V-9" style="edgeStyle=orthogonalEdgeStyle;rounded=0;orthogonalLoop=1;jettySize=auto;html=1;" edge="1" parent="1" source="NUweWYWdrOuJytt6Tr1V-4" target="NUweWYWdrOuJytt6Tr1V-6">
          <mxGeometry relative="1" as="geometry">
            <Array as="points">
              <mxPoint x="640" y="359" />
              <mxPoint x="640" y="299" />
            </Array>
          </mxGeometry>
        </mxCell>
        <mxCell id="NUweWYWdrOuJytt6Tr1V-10" style="edgeStyle=orthogonalEdgeStyle;rounded=0;orthogonalLoop=1;jettySize=auto;html=1;" edge="1" parent="1" source="NUweWYWdrOuJytt6Tr1V-4" target="NUweWYWdrOuJytt6Tr1V-7">
          <mxGeometry relative="1" as="geometry">
            <Array as="points">
              <mxPoint x="630" y="359" />
              <mxPoint x="630" y="382" />
            </Array>
          </mxGeometry>
        </mxCell>
        <mxCell id="NUweWYWdrOuJytt6Tr1V-11" style="edgeStyle=orthogonalEdgeStyle;rounded=0;orthogonalLoop=1;jettySize=auto;html=1;" edge="1" parent="1" source="NUweWYWdrOuJytt6Tr1V-4" target="NUweWYWdrOuJytt6Tr1V-8">
          <mxGeometry relative="1" as="geometry">
            <Array as="points">
              <mxPoint x="559" y="480" />
            </Array>
          </mxGeometry>
        </mxCell>
        <mxCell id="NUweWYWdrOuJytt6Tr1V-13" style="edgeStyle=orthogonalEdgeStyle;rounded=0;orthogonalLoop=1;jettySize=auto;html=1;" edge="1" parent="1" source="NUweWYWdrOuJytt6Tr1V-4" target="NUweWYWdrOuJytt6Tr1V-12">
          <mxGeometry relative="1" as="geometry">
            <Array as="points">
              <mxPoint x="559" y="215" />
            </Array>
          </mxGeometry>
        </mxCell>
        <mxCell id="NUweWYWdrOuJytt6Tr1V-4" value="S3 Bucket" style="sketch=0;points=[[0,0,0],[0.25,0,0],[0.5,0,0],[0.75,0,0],[1,0,0],[0,1,0],[0.25,1,0],[0.5,1,0],[0.75,1,0],[1,1,0],[0,0.25,0],[0,0.5,0],[0,0.75,0],[1,0.25,0],[1,0.5,0],[1,0.75,0]];outlineConnect=0;fontColor=#232F3E;fillColor=#7AA116;strokeColor=#ffffff;dashed=0;verticalLabelPosition=bottom;verticalAlign=top;align=center;html=1;fontSize=12;fontStyle=0;aspect=fixed;shape=mxgraph.aws4.resourceIcon;resIcon=mxgraph.aws4.s3;" vertex="1" parent="1">
          <mxGeometry x="520" y="320" width="78" height="78" as="geometry" />
        </mxCell>
        <mxCell id="NUweWYWdrOuJytt6Tr1V-6" value="/basic" style="sketch=0;pointerEvents=1;shadow=0;dashed=0;html=1;strokeColor=none;fillColor=#505050;labelPosition=center;verticalLabelPosition=bottom;verticalAlign=top;outlineConnect=0;align=center;shape=mxgraph.office.concepts.folder_open;" vertex="1" parent="1">
          <mxGeometry x="700" y="277" width="56" height="43" as="geometry" />
        </mxCell>
        <mxCell id="NUweWYWdrOuJytt6Tr1V-7" value="/standard" style="sketch=0;pointerEvents=1;shadow=0;dashed=0;html=1;strokeColor=none;fillColor=#505050;labelPosition=center;verticalLabelPosition=bottom;verticalAlign=top;outlineConnect=0;align=center;shape=mxgraph.office.concepts.folder_open;" vertex="1" parent="1">
          <mxGeometry x="700" y="360" width="56" height="43" as="geometry" />
        </mxCell>
        <mxCell id="NUweWYWdrOuJytt6Tr1V-8" value="/premium" style="sketch=0;pointerEvents=1;shadow=0;dashed=0;html=1;strokeColor=none;fillColor=#505050;labelPosition=center;verticalLabelPosition=bottom;verticalAlign=top;outlineConnect=0;align=center;shape=mxgraph.office.concepts.folder_open;" vertex="1" parent="1">
          <mxGeometry x="700" y="450" width="56" height="43" as="geometry" />
        </mxCell>
        <mxCell id="NUweWYWdrOuJytt6Tr1V-12" value="public content" style="sketch=0;pointerEvents=1;shadow=0;dashed=0;html=1;strokeColor=none;fillColor=#505050;labelPosition=center;verticalLabelPosition=bottom;verticalAlign=top;outlineConnect=0;align=center;shape=mxgraph.office.communications.video_workload;" vertex="1" parent="1">
          <mxGeometry x="700" y="190" width="57" height="50" as="geometry" />
        </mxCell>
        <mxCell id="NUweWYWdrOuJytt6Tr1V-14" value="" style="sketch=0;pointerEvents=1;shadow=0;dashed=0;html=1;strokeColor=none;labelPosition=center;verticalLabelPosition=bottom;verticalAlign=top;outlineConnect=0;align=center;shape=mxgraph.office.security.lock_protected;fillColor=#DA4026;" vertex="1" parent="1">
          <mxGeometry x="660" y="306" width="20" height="20" as="geometry" />
        </mxCell>
        <mxCell id="NUweWYWdrOuJytt6Tr1V-15" value="" style="sketch=0;pointerEvents=1;shadow=0;dashed=0;html=1;strokeColor=none;labelPosition=center;verticalLabelPosition=bottom;verticalAlign=top;outlineConnect=0;align=center;shape=mxgraph.office.security.lock_protected;fillColor=#DA4026;" vertex="1" parent="1">
          <mxGeometry x="660" y="390" width="20" height="20" as="geometry" />
        </mxCell>
        <mxCell id="NUweWYWdrOuJytt6Tr1V-16" value="" style="sketch=0;pointerEvents=1;shadow=0;dashed=0;html=1;strokeColor=none;labelPosition=center;verticalLabelPosition=bottom;verticalAlign=top;outlineConnect=0;align=center;shape=mxgraph.office.security.lock_protected;fillColor=#DA4026;" vertex="1" parent="1">
          <mxGeometry x="660" y="490" width="20" height="20" as="geometry" />
        </mxCell>
        <mxCell id="NUweWYWdrOuJytt6Tr1V-23" style="edgeStyle=orthogonalEdgeStyle;rounded=0;orthogonalLoop=1;jettySize=auto;html=1;entryX=0;entryY=0.5;entryDx=0;entryDy=0;entryPerimeter=0;" edge="1" parent="1" source="NUweWYWdrOuJytt6Tr1V-1" target="NUweWYWdrOuJytt6Tr1V-3">
          <mxGeometry relative="1" as="geometry">
            <Array as="points">
              <mxPoint x="180" y="288" />
              <mxPoint x="180" y="359" />
            </Array>
          </mxGeometry>
        </mxCell>
        <mxCell id="NUweWYWdrOuJytt6Tr1V-24" style="edgeStyle=orthogonalEdgeStyle;rounded=0;orthogonalLoop=1;jettySize=auto;html=1;entryX=0;entryY=0.5;entryDx=0;entryDy=0;entryPerimeter=0;" edge="1" parent="1" source="NUweWYWdrOuJytt6Tr1V-2" target="NUweWYWdrOuJytt6Tr1V-3">
          <mxGeometry relative="1" as="geometry">
            <Array as="points">
              <mxPoint x="160" y="437" />
              <mxPoint x="160" y="359" />
            </Array>
          </mxGeometry>
        </mxCell>
        <mxCell id="NUweWYWdrOuJytt6Tr1V-35" value="AWS Cloud" style="points=[[0,0],[0.25,0],[0.5,0],[0.75,0],[1,0],[1,0.25],[1,0.5],[1,0.75],[1,1],[0.75,1],[0.5,1],[0.25,1],[0,1],[0,0.75],[0,0.5],[0,0.25]];outlineConnect=0;gradientColor=none;html=1;whiteSpace=wrap;fontSize=12;fontStyle=0;container=1;pointerEvents=0;collapsible=0;recursiveResize=0;shape=mxgraph.aws4.group;grIcon=mxgraph.aws4.group_aws_cloud_alt;strokeColor=#232F3E;fillColor=none;verticalAlign=top;align=left;spacingLeft=30;fontColor=#232F3E;dashed=0;fontFamily=Helvetica;labelBackgroundColor=default;" vertex="1" parent="1">
          <mxGeometry x="230" y="160" width="550" height="390" as="geometry" />
        </mxCell>
        <mxCell id="NUweWYWdrOuJytt6Tr1V-3" value="Cloudfront" style="sketch=0;points=[[0,0,0],[0.25,0,0],[0.5,0,0],[0.75,0,0],[1,0,0],[0,1,0],[0.25,1,0],[0.5,1,0],[0.75,1,0],[1,1,0],[0,0.25,0],[0,0.5,0],[0,0.75,0],[1,0.25,0],[1,0.5,0],[1,0.75,0]];outlineConnect=0;fontColor=#232F3E;fillColor=#8C4FFF;strokeColor=#ffffff;dashed=0;verticalLabelPosition=bottom;verticalAlign=top;align=center;html=1;fontSize=12;fontStyle=0;aspect=fixed;shape=mxgraph.aws4.resourceIcon;resIcon=mxgraph.aws4.cloudfront;" vertex="1" parent="NUweWYWdrOuJytt6Tr1V-35">
          <mxGeometry x="101" y="160" width="78" height="78" as="geometry" />
        </mxCell>
        <mxCell id="NUweWYWdrOuJytt6Tr1V-30" style="rounded=0;orthogonalLoop=1;jettySize=auto;html=1;dashed=1;endArrow=none;endFill=0;" edge="1" parent="NUweWYWdrOuJytt6Tr1V-35" source="NUweWYWdrOuJytt6Tr1V-18" target="NUweWYWdrOuJytt6Tr1V-3">
          <mxGeometry relative="1" as="geometry" />
        </mxCell>
        <mxCell id="NUweWYWdrOuJytt6Tr1V-18" value="Trusted Signer&lt;div&gt;Basic&lt;/div&gt;" style="sketch=0;points=[[0,0,0],[0.25,0,0],[0.5,0,0],[0.75,0,0],[1,0,0],[0,1,0],[0.25,1,0],[0.5,1,0],[0.75,1,0],[1,1,0],[0,0.25,0],[0,0.5,0],[0,0.75,0],[1,0.25,0],[1,0.5,0],[1,0.75,0]];outlineConnect=0;fontColor=#232F3E;fillColor=#DD344C;strokeColor=#ffffff;dashed=0;verticalLabelPosition=bottom;verticalAlign=top;align=center;html=1;fontSize=12;fontStyle=0;aspect=fixed;shape=mxgraph.aws4.resourceIcon;resIcon=mxgraph.aws4.signer;" vertex="1" parent="NUweWYWdrOuJytt6Tr1V-35">
          <mxGeometry x="30" y="300" width="40" height="40" as="geometry" />
        </mxCell>
        <mxCell id="NUweWYWdrOuJytt6Tr1V-31" style="edgeStyle=none;shape=connector;rounded=0;orthogonalLoop=1;jettySize=auto;html=1;dashed=1;strokeColor=default;align=center;verticalAlign=middle;fontFamily=Helvetica;fontSize=11;fontColor=default;labelBackgroundColor=default;endArrow=none;endFill=0;" edge="1" parent="NUweWYWdrOuJytt6Tr1V-35" source="NUweWYWdrOuJytt6Tr1V-21" target="NUweWYWdrOuJytt6Tr1V-3">
          <mxGeometry relative="1" as="geometry" />
        </mxCell>
        <mxCell id="NUweWYWdrOuJytt6Tr1V-21" value="Trusted Signer&lt;div&gt;Standard&lt;/div&gt;" style="sketch=0;points=[[0,0,0],[0.25,0,0],[0.5,0,0],[0.75,0,0],[1,0,0],[0,1,0],[0.25,1,0],[0.5,1,0],[0.75,1,0],[1,1,0],[0,0.25,0],[0,0.5,0],[0,0.75,0],[1,0.25,0],[1,0.5,0],[1,0.75,0]];outlineConnect=0;fontColor=#232F3E;fillColor=#DD344C;strokeColor=#ffffff;dashed=0;verticalLabelPosition=bottom;verticalAlign=top;align=center;html=1;fontSize=12;fontStyle=0;aspect=fixed;shape=mxgraph.aws4.resourceIcon;resIcon=mxgraph.aws4.signer;" vertex="1" parent="NUweWYWdrOuJytt6Tr1V-35">
          <mxGeometry x="120" y="300" width="40" height="40" as="geometry" />
        </mxCell>
        <mxCell id="NUweWYWdrOuJytt6Tr1V-32" style="edgeStyle=none;shape=connector;rounded=0;orthogonalLoop=1;jettySize=auto;html=1;dashed=1;strokeColor=default;align=center;verticalAlign=middle;fontFamily=Helvetica;fontSize=11;fontColor=default;labelBackgroundColor=default;endArrow=none;endFill=0;" edge="1" parent="NUweWYWdrOuJytt6Tr1V-35" source="NUweWYWdrOuJytt6Tr1V-22" target="NUweWYWdrOuJytt6Tr1V-3">
          <mxGeometry relative="1" as="geometry" />
        </mxCell>
        <mxCell id="NUweWYWdrOuJytt6Tr1V-22" value="Trusted Signer&lt;div&gt;Premium&lt;/div&gt;" style="sketch=0;points=[[0,0,0],[0.25,0,0],[0.5,0,0],[0.75,0,0],[1,0,0],[0,1,0],[0.25,1,0],[0.5,1,0],[0.75,1,0],[1,1,0],[0,0.25,0],[0,0.5,0],[0,0.75,0],[1,0.25,0],[1,0.5,0],[1,0.75,0]];outlineConnect=0;fontColor=#232F3E;fillColor=#DD344C;strokeColor=#ffffff;dashed=0;verticalLabelPosition=bottom;verticalAlign=top;align=center;html=1;fontSize=12;fontStyle=0;aspect=fixed;shape=mxgraph.aws4.resourceIcon;resIcon=mxgraph.aws4.signer;" vertex="1" parent="NUweWYWdrOuJytt6Tr1V-35">
          <mxGeometry x="210" y="300" width="40" height="40" as="geometry" />
        </mxCell>
        <mxCell id="NUweWYWdrOuJytt6Tr1V-33" value="AWS WAF" style="sketch=0;points=[[0,0,0],[0.25,0,0],[0.5,0,0],[0.75,0,0],[1,0,0],[0,1,0],[0.25,1,0],[0.5,1,0],[0.75,1,0],[1,1,0],[0,0.25,0],[0,0.5,0],[0,0.75,0],[1,0.25,0],[1,0.5,0],[1,0.75,0]];outlineConnect=0;fontColor=#232F3E;fillColor=#DD344C;strokeColor=#ffffff;dashed=0;verticalLabelPosition=bottom;verticalAlign=top;align=center;html=1;fontSize=12;fontStyle=0;aspect=fixed;shape=mxgraph.aws4.resourceIcon;resIcon=mxgraph.aws4.waf;fontFamily=Helvetica;labelBackgroundColor=default;" vertex="1" parent="NUweWYWdrOuJytt6Tr1V-35">
          <mxGeometry x="120" y="50" width="40" height="40" as="geometry" />
        </mxCell>
        <mxCell id="NUweWYWdrOuJytt6Tr1V-34" style="edgeStyle=none;shape=connector;rounded=0;orthogonalLoop=1;jettySize=auto;html=1;entryX=0.5;entryY=0;entryDx=0;entryDy=0;entryPerimeter=0;dashed=1;strokeColor=default;align=center;verticalAlign=middle;fontFamily=Helvetica;fontSize=11;fontColor=default;labelBackgroundColor=default;endArrow=none;endFill=0;" edge="1" parent="NUweWYWdrOuJytt6Tr1V-35" source="NUweWYWdrOuJytt6Tr1V-33" target="NUweWYWdrOuJytt6Tr1V-3">
          <mxGeometry relative="1" as="geometry" />
        </mxCell>
      </root>
    </mxGraphModel>
  </diagram>
</mxfile>
